{"title":"The Mummy(1999)MPEG-4(720p)[DaScubaDude]","uid":13186985,"size":1252754610,"categoryP":"video","categoryS":"movies","magnet":"?xt=urn:btih:01b74b2e7eb281793ec1400d121c48a4c29955ee&amp;dn=The+Mummy%281999%29MPEG-4%28720p%29%5BDaScubaDude%5D&amp;tr=udp%3A%2F%2Ftracker.leechers-paradise.org%3A6969&amp;tr=udp%3A%2F%2Fzer0day.ch%3A1337&amp;tr=udp%3A%2F%2Fopen.demonii.com%3A1337&amp;tr=udp%3A%2F%2Ftracker.coppersurfer.tk%3A6969&amp;tr=udp%3A%2F%2Fexodus.desync.com%3A6969","seeders":0,"leechers":1,"uploader":"dascuba","files":1,"time":1452389143,"description":"\nSee More on IMDb Pro »\r\n861\r\nThe Mummy (1999)\r\nPG-13  |  125 min  |  Action, Adventure, Fantasy  |  7 May 1999 (USA)\r\n7.0 Your rating:   -/10   Ratings: 7.0/10 from 303,219 users   Metascore: 48/100\r\nReviews: 966 user | 189 critic | 34 from Metacritic.com\r\nAn American serving in the French Foreign Legion on an archaeological dig at the ancient city of Hamunaptra accidentally awakens a mummy.\r\n\r\nDirector: Stephen Sommers\r\nWriters: Stephen Sommers (screen story), Lloyd Fonvielle (screen story), 5 more credits »\r\nStars: Brendan Fraser, Rachel Weisz, John Hannah\r\n\r\nGeneral\r\nComplete name                            :The MummyMUMMY169_Title1.mp4\r\nFormat                                   : MPEG-4\r\nFormat profile                           : Base Media\r\nCodec ID                                 : isom\r\nFile size                                : 1.17 GiB\r\nDuration                                 : 2h 4mn\r\nOverall bit rate                         : 1 339 Kbps\r\nMovie name                               : MUMMY169\r\nGenre                                    : Adventure\r\nWriting application                      : Lavf54.6.100\r\n\r\nVideo\r\nID                                       : 1\r\nFormat                                   : AVC\r\nFormat/Info                              : Advanced Video Codec\r\nFormat profile                           :   \r\nFormat settings, CABAC                   : No\r\nFormat settings, ReFrames                : 6 frames\r\nFormat settings, GOP                     : M=1, N=60\r\nCodec ID                                 : avc1\r\nCodec ID/Info                            : Advanced Video Coding\r\nDuration                                 : 2h 4mn\r\nBit rate                                 : 1 204 Kbps\r\nWidth                                    : 720 pixels\r\nHeight                                   : 404 pixels\r\nDisplay aspect ratio                     : 16:9\r\nFrame rate mode                          : Constant\r\nFrame rate                               : 29.970 fps\r\nColor space                              : YUV\r\nChroma subsampling                       : 4:2:0\r\nBit depth                                : 8 bits\r\nScan type                                : Progressive\r\nBits/(Pixel*Frame)                       : 0.138\r\nStream size                              : 1.05 GiB (90%)\r\n\r\nAudio\r\nID                                       : 2\r\nFormat                                   : AAC\r\nFormat/Info                              : Advanced Audio Codec\r\nFormat profile                           : LC\r\nCodec ID                                 : 40\r\nDuration                                 : 2h 4mn\r\nBit rate mode                            : Constant\r\nBit rate                                 : 128 Kbps\r\nChannel(s)                               : 2 channels\r\nChannel positions                        : Front: L R\r\nSampling rate                            : 44.1 KHz\r\nCompression mode                         : Lossy\r\nStream size                              : 114 MiB (10%)","torrent":{"xt":"urn:btih:01b74b2e7eb281793ec1400d121c48a4c29955ee","amp;dn":"The+Mummy%281999%29MPEG-4%28720p%29%5BDaScubaDude%5D","amp;tr":["udp%3A%2F%2Ftracker.leechers-paradise.org%3A6969","udp%3A%2F%2Fzer0day.ch%3A1337","udp%3A%2F%2Fopen.demonii.com%3A1337","udp%3A%2F%2Ftracker.coppersurfer.tk%3A6969","udp%3A%2F%2Fexodus.desync.com%3A6969"],"infoHash":"01b74b2e7eb281793ec1400d121c48a4c29955ee","infoHashBuffer":{"type":"Buffer","data":[1,183,75,46,126,178,129,121,62,193,64,13,18,28,72,164,194,153,85,238]},"announce":[],"urlList":[]}}